<svg xmlns="http://www.w3.org/2000/svg" version="1.1" xmlns:xlink="http://www.w3.org/1999/xlink" width="512" height="512"><svg id="SvgjsSvg1001" xmlns="http://www.w3.org/2000/svg" version="1.1" viewBox="0 0 512 512">
  <!-- Generator: Adobe Illustrator 29.5.1, SVG Export Plug-In . SVG Version: 2.1.0 Build 141)  -->
  <defs>
    <style>
      .st0 {
        fill: #111;
      }

      .st1 {
        fill: #df0;
      }
    </style>
  </defs>
  <circle cx="256" cy="256" r="257.07"></circle>
  <path class="st1" d="M256-.33l10.72,28.62c19.54,52.16,81.04,74.54,129.53,47.15l26.61-15.03-10.18,28.82c-18.56,52.51,14.16,109.19,68.92,119.38l30.05,5.59-26.33,15.53c-47.97,28.3-59.34,92.75-23.94,135.75l19.43,23.6-30.15-5.03c-54.94-9.16-105.07,32.91-105.59,88.6l-.29,30.56-19.86-23.23c-36.2-42.33-101.65-42.33-137.84,0l-19.86,23.23-.29-30.56c-.52-55.69-50.66-97.76-105.59-88.6l-30.15,5.03,19.43-23.6c35.4-43,24.04-107.45-23.94-135.75L.35,214.18l30.05-5.59c54.76-10.18,87.48-66.86,68.92-119.38l-10.18-28.82,26.61,15.03c48.49,27.4,109.99,5.01,129.53-47.15L256-.35s0,.02,0,.02Z"></path>
  <path class="st0" d="M120.28,334.6v-148.4c0-6.47-1.37-12.05-4.11-16.75s-6.17-7.05-10.29-7.05v-6.47c1.37-.2,12.05-6.17,32.03-17.93,1.37.39,3.04.98,5,1.76,1.96.59,4.51,2.45,7.64,5.58,3.33,3.13,5,6.76,5,10.87,1.18-.59,4.51-2.45,9.99-5.58,14.5-8.23,23.41-12.34,26.74-12.34,3.53,0,7.35,1.76,11.46,5.29,4.31,3.53,7.54,7.74,9.7,12.64.39-.2,4.41-2.25,12.05-6.17,15.28-7.84,24.49-11.75,27.62-11.75,6.27,0,12.15,4.11,17.63,12.34,5.49,8.23,8.23,15.77,8.23,22.63v147.82c0,10.78,4.8,17.14,14.4,19.1v6.47l-32.03,17.93c-4.31-1.76-8.33-4.6-12.05-8.52-3.72-4.11-5.58-7.93-5.58-11.46v-143.99c0-11.75-1.96-19.88-5.88-24.39-3.72-4.7-10.58-7.25-20.57-7.64v152.52c0,10.78,4.8,17.14,14.4,19.1v6.47l-32.03,17.93c-4.31-1.76-8.33-4.6-12.05-8.52-3.72-4.11-5.58-7.93-5.58-11.46v-143.99c0-12.34-1.86-20.77-5.58-25.27-3.53-4.51-10.48-6.76-20.86-6.76v150.75c0,7.25.78,12.44,2.35,15.57s4.8,4.7,9.7,4.7v9.11l-60.24,25.27-4.7-9.4c4.31,0,8.42-2.55,12.34-7.64,3.53-4.9,5.29-12.34,5.29-22.33l-.02-.04h0ZM358.5,337.54c3.72,0,7.54-1.57,11.46-4.7v-37.91c0-11.95-4.02-18.71-12.05-20.28v-6.47l29.68-16.75c4.11,1.76,8.13,4.7,12.05,8.82,3.92,3.92,5.88,7.64,5.88,11.17v65.83c0,1.57-10.77,6.56-32.33,14.99-21.35,8.23-34.48,12.34-39.38,12.34s-10.19-4.21-16.46-12.64c-6.07-8.42-9.11-18.51-9.11-30.27v-156.34c0-1.37,11.17-6.17,33.5-14.4,22.53-8.42,35.46-12.64,38.79-12.64,1.18,0,2.55,2.84,4.11,8.52,1.57,5.68,3.33,12.54,5.29,20.57,2.16,8.03,4.31,14.01,6.47,17.93,2.35,3.72,6.66,5.58,12.93,5.58v5.88c-4.31,1.96-11.66,5.49-22.04,10.58-10.19,4.9-15.67,7.35-16.46,7.35-2.94,0-6.66-7.93-11.17-23.8-4.51-16.06-8.13-24.1-10.87-24.1-1.96,0-3.72.98-5.29,2.94v146.05c0,14.5,5,21.75,14.99,21.75h.01Z"></path>
</svg><style>@media (prefers-color-scheme: light) { :root { filter: none; } }
@media (prefers-color-scheme: dark) { :root { filter: none; } }
</style></svg>