<svg width="386" height="461" viewBox="0 0 386 461" fill="none" xmlns="http://www.w3.org/2000/svg">
<path d="M145.089 445.749L144.102 444.592C125.501 422.744 89.9788 430.819 82.6736 458.554L82.2836 460.026L82.2722 458.502C82.083 429.828 49.6741 413.209 26.2276 429.759L24.9833 430.635L25.9523 429.461C44.2612 407.373 30.1324 373.837 1.51952 371.466L0 371.34L1.49659 371.065C29.7425 365.899 40.4996 331.137 20.1036 310.95L19.0199 309.879L20.3444 310.629C45.3047 324.803 75.9188 305.086 73.2869 276.526L73.1493 275.014L73.6768 276.44C83.677 303.322 119.819 307.869 136.184 284.303L137.05 283.055L136.539 284.486C126.9 311.5 151.66 338.187 179.361 330.639L180.829 330.238L179.516 331.006C154.745 345.512 156.54 381.848 182.612 393.852L183.994 394.488L182.492 394.236C154.183 389.442 132.17 418.432 144.418 444.368L145.066 445.743L145.089 445.749Z" fill="#DDFF00"/>
<path d="M207.732 311.14C204.492 280.59 178.872 257.56 148.142 257.56C137.792 257.56 127.882 260.2 118.692 265.42L110.172 270.26L115.642 262.13C126.942 245.34 129.002 224.17 121.152 205.52C113.302 186.86 96.7316 173.54 76.8216 169.88L67.1816 168.11L76.6016 165.4C96.0516 159.8 111.232 144.91 117.212 125.58C123.192 106.25 119.062 85.38 106.162 69.78L99.9116 62.22L108.872 66.2C116.662 69.66 124.842 71.41 133.172 71.41C165.912 71.41 192.742 44.74 192.982 11.95L193.052 2.15L197.362 10.96C207.482 31.66 228.122 44.52 251.222 44.52C268.712 44.52 285.272 36.85 296.662 23.47L303.022 16.01L300.662 25.52C296.192 43.51 300.162 62.18 311.552 76.74C323.012 91.39 340.122 99.8 358.492 99.8C361.872 99.8 365.302 99.51 368.692 98.94L378.362 97.31L370.432 103.08C354.072 114.99 344.892 134.18 345.892 154.39C346.892 174.6 357.902 192.79 375.362 203.04L383.812 208L374.032 207.33C372.612 207.23 371.172 207.18 369.752 207.18C350.442 207.18 332.222 216.66 321.012 232.55C309.662 248.63 306.942 268.51 313.542 287.07L316.832 296.31L309.772 289.51C298.552 278.69 283.862 272.74 268.422 272.74C243.072 272.74 220.992 288.04 212.182 311.72L208.762 320.91L207.732 311.16V311.14Z" fill="#DDFF00"/>
<path d="M193.562 4.28L196.932 11.18C207.142 32.05 227.952 45.02 251.242 45.02C268.872 45.02 285.572 37.28 297.062 23.8L302.042 17.96L300.192 25.41C295.692 43.55 299.692 62.37 311.172 77.05C322.732 91.83 339.982 100.3 358.512 100.3C361.922 100.3 365.372 100.01 368.792 99.43L376.362 98.15L370.152 102.67C353.652 114.68 344.402 134.03 345.402 154.41C346.402 174.8 357.512 193.14 375.112 203.47L381.732 207.36L374.072 206.83C372.642 206.73 371.182 206.68 369.762 206.68C350.292 206.68 331.912 216.24 320.612 232.26C309.172 248.48 306.422 268.52 313.082 287.24L315.652 294.47L310.122 289.14C298.802 278.23 284.002 272.23 268.422 272.23C242.862 272.23 220.602 287.66 211.712 311.54L209.032 318.73L208.222 311.1C204.952 280.3 179.122 257.07 148.132 257.07C137.692 257.07 127.702 259.74 118.442 265L111.762 268.79L116.052 262.42C127.452 245.49 129.522 224.15 121.612 205.33C113.692 186.52 96.9816 173.08 76.9116 169.39L69.3616 168L76.7416 165.88C96.3516 160.23 111.662 145.22 117.692 125.72C123.722 106.22 119.552 85.19 106.552 69.46L101.662 63.54L108.682 66.66C116.542 70.15 124.782 71.92 133.182 71.92C166.192 71.92 193.252 45.02 193.492 11.96L193.552 4.28M192.592 0.02L192.502 11.95C192.252 45.98 164.292 70.91 133.192 70.91C125.232 70.91 117.052 69.27 109.092 65.74L98.1916 60.9L105.792 70.09C133.022 103.03 117.552 153.09 76.4716 164.91L65.0116 168.21L76.7416 170.37C118.782 178.1 139.102 226.4 115.232 261.85L108.572 271.75L118.942 265.86C128.352 260.52 138.362 258.06 148.142 258.06C177.002 258.06 203.862 279.45 207.232 311.19L208.492 323.05L212.652 311.87C221.872 287.11 244.902 273.22 268.422 273.22C282.952 273.22 297.672 278.53 309.422 289.85L318.012 298.13L314.012 286.89C300.162 247.97 329.282 207.67 369.752 207.67C371.152 207.67 372.572 207.72 373.992 207.82L385.892 208.64L375.602 202.6C338.742 180.96 336.172 128.63 370.722 103.47L380.362 96.45L368.602 98.44C365.182 99.02 361.802 99.29 358.492 99.29C320.982 99.29 291.682 63.75 301.142 25.63L304.012 14.05L296.282 23.13C284.262 37.24 267.682 44 251.222 44C229.722 44 208.442 32.47 197.812 10.72L192.572 0L192.592 0.02Z" fill="#DDFF00"/>
</svg>
